<svg xmlns="http://www.w3.org/2000/svg" xmlns:xlink="http://www.w3.org/1999/xlink" viewBox="0 0 481.77 133.29"><defs><style>.cls-1{fill:#f2f2f2;stroke-miterlimit:10;stroke:url(#linear-gradient);}</style><linearGradient id="linear-gradient" x1="0.03" y1="63.33" x2="481.52" y2="67.93" gradientUnits="userSpaceOnUse"><stop offset="0" stop-color="#fff"/><stop offset="1" stop-color="#a08484"/><stop offset="1" stop-color="#333332"/></linearGradient></defs><title>Asset 16</title><g id="Layer_2" data-name="Layer 2"><g id="Layer_1-2" data-name="Layer 1"><polygon class="cls-1" points="434.23 3.11 385.32 21.45 341.51 0.58 299.11 29.75 291.02 18.85 236.58 25.14 227.92 45.15 195.77 26.99 167.3 43.79 134.12 18.11 93.18 32.39 84.97 18.08 28.8 17.92 0.58 66.48 28.52 115.2 84.68 115.37 92.6 101.75 117.37 120.93 159.45 106.24 196.72 127.29 236.07 104.08 247.47 119.43 301.91 113.14 303.45 109.59 351.98 132.71 392.2 105.03 414.26 123.18 471.24 101.81 481.23 41.77 434.23 3.11"/></g></g></svg>