<svg xmlns="http://www.w3.org/2000/svg" xmlns:xlink="http://www.w3.org/1999/xlink" viewBox="0 0 1920 1080"><defs><style>.cls-1{fill:url(#linear-gradient);}.cls-2{fill:url(#linear-gradient-2);}</style><linearGradient id="linear-gradient" x1="437.52" y1="882.96" x2="1553.23" y2="260.48" gradientUnits="userSpaceOnUse"><stop offset="0" stop-color="#7fc4ff"/><stop offset="0.7" stop-color="#3f93c1"/><stop offset="0.89" stop-color="#00d9ff"/></linearGradient><linearGradient id="linear-gradient-2" y1="540" x2="1920" y2="540" gradientUnits="userSpaceOnUse"><stop offset="0" stop-color="#fff"/><stop offset="1" stop-color="#a08484"/><stop offset="1" stop-color="#333332"/></linearGradient></defs><title>Layer 1</title><g id="Layer_2" data-name="Layer 2"><g id="Layer_1-2" data-name="Layer 1"><path class="cls-1" d="M92.25,1040.36l4.87,9.08q20.73-62.4,41.45-124.79l175.37-36.08,82.87,93.24,52.4-33.95,178.9,91.41s.35,6.7.91,17.64l66.23,2.45,4.87,9.08q20.73-62.4,41.45-124.79l175.37-36.08,82.87,93.24,52.4-33.95,178.9,91.41s.23,4.37.61,11.81c3.26-1,5.64-1.27,6.67-.36l13.46,10.28h1.64l37.63-59.9,115.13,4.26,4.87,9.08q20.73-62.4,41.45-124.79l175.37-36.08,82.87,93.24,52.4-33.95L1920,1012V0H959S812,208,682,139s-252,14-252,14-233,121-235,0S0,176,0,176v860.94Z"/><path class="cls-2" d="M1919,1V1010.34L1885.09,993l-121.42-62-.52-.26-.48.31L1711,964.5l-82.29-92.6-.39-.43-.56.12-153.06,31.49-22.31,4.59-.56.11-.19.55-20.72,62.4-20,60.19-1.34-2.49-2.43-4.54-.28-.51-.57,0-115.14-4.26-.57,0-.31.48-10.47,16.68L1252.94,1079h-.75L1239,1068.94a3.87,3.87,0,0,0-2.62-.78,14.78,14.78,0,0,0-3.75.61l-.54-10.55,0-.58-.51-.26-54.76-28L1052.67,966l-.52-.26-.48.31L1000,999.5l-82.29-92.6-.39-.43-.56.12L741.37,942.67l-.56.11-.19.55-20.72,62.4-20,60.19-2.23-4.16-1.54-2.87-.28-.51-.57,0L631.42,1056l-1.45,0-.86-16.72,0-.58-.51-.26-54.76-28L449.67,947l-.52-.26-.48.31L397,980.5l-82.29-92.6-.39-.43-.56.12L138.37,923.67l-.56.11-.19.55-20.72,62.4-20,60.19-2.23-4.16-1.54-2.87-.28-.51-.57,0-46.13-1.71L1,1036V176.5a624.6,624.6,0,0,1,54.51-35.33C96,117.9,129.75,105.6,153,105.6c12.54,0,22.33,3.52,29.08,10.47,7.62,7.84,11.62,20.27,11.9,37,.6,36.33,21.73,54.76,62.81,54.76,36.13,0,81.43-14.66,113.07-27,34.25-13.31,60.32-26.8,60.58-26.93l.05,0,.05,0c.15-.11,15.46-10.44,40.5-20.64,23.1-9.4,59.43-20.61,101.38-20.61a230.52,230.52,0,0,1,109.09,27.3A119.32,119.32,0,0,0,738,154c58.6,0,115.8-41.76,153.47-76.78A565.27,565.27,0,0,0,959.51,1H1919m1-1H959S850.85,153,738,153a117.86,117.86,0,0,1-56-14,231.16,231.16,0,0,0-109.56-27.42C490.87,111.58,430,153,430,153s-103.56,53.78-173.19,53.78C222,206.78,195.67,193.34,195,153c-.59-35.8-17.9-48.4-42-48.4C95.7,104.6,0,176,0,176v860.94l92.25,3.42,4.87,9.08q20.73-62.4,41.45-124.79l175.37-36.08,82.87,93.24,52.4-33.95,178.9,91.41s.35,6.7.91,17.64l66.23,2.45,4.87,9.08q20.73-62.4,41.45-124.79l175.37-36.08,82.87,93.24,52.4-33.95,178.9,91.41s.23,4.37.61,11.81a16.83,16.83,0,0,1,4.68-.92,2.94,2.94,0,0,1,2,.56l13.46,10.28h1.64l37.63-59.9,115.13,4.26,4.87,9.08q20.73-62.4,41.45-124.79l175.37-36.08,82.87,93.24,52.4-33.95L1920,1012V0Z"/></g></g></svg>