<svg xmlns="http://www.w3.org/2000/svg" xmlns:xlink="http://www.w3.org/1999/xlink" viewBox="0 0 1921.5 1081.01"><defs><style>.cls-1,.cls-2{stroke-miterlimit:10;}.cls-1{fill:url(#linear-gradient);stroke:url(#linear-gradient-2);}.cls-2{fill:url(#linear-gradient-3);stroke:url(#linear-gradient-4);}</style><linearGradient id="linear-gradient" x1="402.17" y1="818.16" x2="1517.73" y2="195.76" gradientUnits="userSpaceOnUse"><stop offset="0" stop-color="#7fc4ff"/><stop offset="0.7" stop-color="#3f93c1"/><stop offset="0.89" stop-color="#00d9ff"/></linearGradient><linearGradient id="linear-gradient-2" y1="540.51" x2="1921.5" y2="540.51" gradientUnits="userSpaceOnUse"><stop offset="0" stop-color="#fff"/><stop offset="1" stop-color="#a08484"/><stop offset="1" stop-color="#333332"/></linearGradient><linearGradient id="linear-gradient-3" x1="524.5" y1="75.01" x2="524.5" y2="75.01" xlink:href="#linear-gradient"/><linearGradient id="linear-gradient-4" x1="524.5" y1="75.01" x2="524.5" y2="75.01" xlink:href="#linear-gradient-2"/></defs><title>Asset 17</title><g id="Layer_2" data-name="Layer 2"><g id="Layer_1-2" data-name="Layer 1"><path class="cls-1" d="M960,.51c-.14,0,2.85,0,3,0h957.55A.46.46,0,0,1,1921,1V1011.75a.45.45,0,0,1-.66.4l-155.9-79.66a.48.48,0,0,0-.45,0l-51.86,33.61a.46.46,0,0,1-.58-.08l-82.44-92.77a.45.45,0,0,0-.43-.14l-174.85,36a.43.43,0,0,0-.34.3l-41,123.55a.45.45,0,0,1-.82.07l-4.25-7.93a.47.47,0,0,0-.38-.24l-114.62-4.24a.43.43,0,0,0-.4.21q-18.68,29.75-37.36,59.47a.42.42,0,0,1-.38.21h-.34l-14.15-9.79c-.66-1.38-3-1.31-6.46-.3a.47.47,0,0,1-.6-.42l-.56-11a.44.44,0,0,0-.24-.36l-178.45-91.18a.48.48,0,0,0-.45,0l-51.86,33.61a.46.46,0,0,1-.58-.08l-82.44-92.77a.45.45,0,0,0-.43-.14l-174.85,36a.43.43,0,0,0-.34.3l-41,123.55a.45.45,0,0,1-.82.07l-4.25-7.93a.47.47,0,0,0-.38-.24l-65.56-2.42a.48.48,0,0,1-.44-.45c-.49-9.5-.81-15.71-.87-17a.43.43,0,0,0-.23-.35L450.44,948.49a.48.48,0,0,0-.45,0l-51.86,33.61a.46.46,0,0,1-.58-.08l-82.44-92.77a.45.45,0,0,0-.43-.14l-174.85,36a.43.43,0,0,0-.34.3L98.45,1049a.45.45,0,0,1-.82.07l-4.25-7.93a.47.47,0,0,0-.38-.24l-91.57-3.39A.44.44,0,0,1,1,1037L.5,1c0-.14,132.62.43,132.5.5"/><path class="cls-2" d="M524.5,75"/></g></g></svg>