<svg xmlns="http://www.w3.org/2000/svg" xmlns:xlink="http://www.w3.org/1999/xlink" viewBox="0 0 142 81.56"><defs><style>.cls-1{fill:#fff;}.cls-2{fill:#f2f2f2;}.cls-3{fill:url(#linear-gradient);}.cls-4{fill:url(#linear-gradient-2);}.cls-5,.cls-8{fill:none;stroke-miterlimit:10;}.cls-5{stroke:url(#linear-gradient-3);}.cls-6{fill:url(#linear-gradient-4);}.cls-7{fill:url(#linear-gradient-5);}.cls-8{stroke:url(#linear-gradient-6);}.cls-9{fill:url(#linear-gradient-7);}.cls-10{fill:url(#linear-gradient-8);}</style><linearGradient id="linear-gradient" x1="120.51" y1="17.55" x2="127.49" y2="21.45" gradientUnits="userSpaceOnUse"><stop offset="0" stop-color="#fff"/><stop offset="1" stop-color="#a08484"/><stop offset="1" stop-color="#333332"/></linearGradient><linearGradient id="linear-gradient-2" x1="114.5" y1="0" x2="114.5" y2="8" xlink:href="#linear-gradient"/><linearGradient id="linear-gradient-3" x1="54.5" y1="4.5" x2="96.5" y2="4.5" xlink:href="#linear-gradient"/><linearGradient id="linear-gradient-4" x1="120.51" y1="63.94" x2="127.45" y2="59.97" xlink:href="#linear-gradient"/><linearGradient id="linear-gradient-5" x1="114.69" y1="81.56" x2="114.61" y2="73.56" xlink:href="#linear-gradient"/><linearGradient id="linear-gradient-6" x1="73.07" y1="156.41" x2="115.07" y2="156.41" gradientTransform="matrix(1, -0.01, -0.01, -1, -16.74, 234.89)" xlink:href="#linear-gradient"/><linearGradient id="linear-gradient-7" x1="93.13" y1="32.77" x2="104.96" y2="26.18" gradientUnits="userSpaceOnUse"><stop offset="0" stop-color="#7fc4ff"/><stop offset="0.7" stop-color="#3f93c1"/><stop offset="0.89" stop-color="#00d9ff"/></linearGradient><linearGradient id="linear-gradient-8" x1="86" y1="29.5" x2="112" y2="29.5" xlink:href="#linear-gradient"/></defs><title>Asset 7</title><g id="Layer_2" data-name="Layer 2"><g id="Layer_1-2" data-name="Layer 1"><ellipse class="cls-1" cx="18.5" cy="40" rx="18" ry="5.5"/><path d="M18.5,35C29.34,35,36,37.91,36,40s-6.66,5-17.5,5S1,42.09,1,40s6.66-5,17.5-5m0-1C8.28,34,0,36.69,0,40s8.28,6,18.5,6S37,43.31,37,40s-8.28-6-18.5-6Z"/><ellipse class="cls-1" cx="89" cy="40" rx="52.5" ry="5.5"/><path d="M89,35a359.65,359.65,0,0,1,36.27,1.63C138.05,38,140.5,39.58,140.93,40c-.43.42-2.88,2-15.66,3.37A359.65,359.65,0,0,1,89,45a359.65,359.65,0,0,1-36.27-1.63C40,42,37.5,40.42,37.07,40c.43-.42,2.88-2,15.66-3.37A359.65,359.65,0,0,1,89,35m0-1c-29.27,0-53,2.69-53,6s23.73,6,53,6,53-2.69,53-6-23.73-6-53-6Z"/><ellipse class="cls-2" cx="124" cy="19.5" rx="18.5" ry="4" transform="translate(46.59 118.31) rotate(-60.86)"/><path class="cls-3" d="M132.5,4.2c.76.81-.59,7.27-5.88,16.76-5,8.9-9.74,13.82-11.12,13.84-.76-.81.59-7.27,5.88-16.76,5-8.9,9.74-13.82,11.14-13.82l0,0m0-1c-2.27,0-7.41,6.07-12,14.33-5,8.93-7.45,17-5.52,18.11a1,1,0,0,0,.49.12c2.27,0,7.41-6.07,12-14.33,5-8.93,7.45-17,5.52-18.11a1,1,0,0,0-.49-.12Z"/><ellipse class="cls-2" cx="114.5" cy="4" rx="18.5" ry="4"/><path class="cls-4" d="M114.5,1c10.86,0,17.17,2,17.5,3-.33,1.05-6.64,3-17.5,3S97.33,5,97,4c.33-1,6.64-3,17.5-3m0-1C104.28,0,96,1.79,96,4s8.28,4,18.5,4S133,6.21,133,4s-8.28-4-18.5-4Z"/><line class="cls-5" x1="96.5" y1="4.5" x2="54.5" y2="4.5"/><ellipse class="cls-2" cx="123.98" cy="61.96" rx="4" ry="18.5" transform="translate(-14.4 69.7) rotate(-29.76)"/><path class="cls-6" d="M115.3,46.77c1.45,0,6.18,4.76,11.29,13.7,5.39,9.43,6.81,15.88,6.07,16.67-1.45,0-6.17-4.76-11.28-13.7C116,54,114.57,47.56,115.27,46.77h0m0-1a1,1,0,0,0-.5.12c-1.92,1.1.64,9.18,5.71,18,4.68,8.2,9.88,14.2,12.15,14.2a1,1,0,0,0,.5-.12c1.92-1.1-.64-9.18-5.71-18-4.68-8.2-9.88-14.2-12.15-14.2Z"/><ellipse class="cls-2" cx="114.65" cy="77.56" rx="18.5" ry="4" transform="translate(-0.83 1.24) rotate(-0.62)"/><path class="cls-7" d="M115.54,74.55h0c10.44,0,16.27,1.82,16.61,2.79-.32,1.06-6.61,3.1-17.47,3.22h-.92c-10.44,0-16.28-1.82-16.61-2.79.32-1.06,6.6-3.1,17.47-3.21h.92m0-1h-.93c-10.22.11-18.48,2-18.46,4.2s7.82,3.8,17.61,3.8h.93c10.22-.11,18.48-2,18.46-4.2s-7.83-3.81-17.61-3.81Z"/><line class="cls-8" x1="96.64" y1="77.25" x2="54.65" y2="77.7"/><ellipse class="cls-9" cx="99" cy="29.5" rx="13" ry="4.5"/><path class="cls-10" d="M99,26c7.33,0,12,2.07,12,3.5S106.33,33,99,33s-12-2.07-12-3.5S91.67,26,99,26m0-1c-7.18,0-13,2-13,4.5S91.82,34,99,34s13-2,13-4.5S106.18,25,99,25Z"/></g></g></svg>